<svg xmlns="http://www.w3.org/2000/svg" viewBox="0 0 760 170" role="img" aria-label="ATIKES">
  <defs>
    <linearGradient id="mark" x1="0" x2="1" y1="0" y2="1">
      <stop offset="0" stop-color="#0a63d8"/>
      <stop offset="0.55" stop-color="#0a36a8"/>
      <stop offset="1" stop-color="#09005d"/>
    </linearGradient>
    <filter id="softShadow" x="-10%" y="-10%" width="120%" height="120%">
      <feDropShadow dx="4" dy="6" stdDeviation="4" flood-color="#0f172a" flood-opacity="0.22"/>
    </filter>
  </defs>
  <g filter="url(#softShadow)">
    <path fill="url(#mark)" d="M24 136 82 28c12-22 45-12 43 13l-5 71 23-42c10-19 39-14 43 7l19 88h-44l-10-47-33 61c-7 13-24 15-35 5L24 136Z"/>
    <path fill="#101114" d="m122 42 31 34-24 44-14-11 7-67Z"/>
    <path fill="#06005f" d="M23 136h64l33-61 40 90H55c-26 0-43-16-32-29Z"/>
  </g>
  <g fill="#063fbc" font-family="Arial, Helvetica, sans-serif" font-size="92" font-weight="900" letter-spacing="5">
    <text x="245" y="118">ATIKES</text>
  </g>
</svg>
